<svg width="206" height="50" viewBox="0 0 206 50" fill="none" xmlns="http://www.w3.org/2000/svg">
<path d="M56.99 24.44C56.99 22.36 57.44 20.51 58.34 18.89C59.24 17.25 60.49 15.98 62.09 15.08C63.71 14.16 65.54 13.7 67.58 13.7C70.08 13.7 72.22 14.36 74 15.68C75.78 17 76.97 18.8 77.57 21.08H71.93C71.51 20.2 70.91 19.53 70.13 19.07C69.37 18.61 68.5 18.38 67.52 18.38C65.94 18.38 64.66 18.93 63.68 20.03C62.7 21.13 62.21 22.6 62.21 24.44C62.21 26.28 62.7 27.75 63.68 28.85C64.66 29.95 65.94 30.5 67.52 30.5C68.5 30.5 69.37 30.27 70.13 29.81C70.91 29.35 71.51 28.68 71.93 27.8H77.57C76.97 30.08 75.78 31.88 74 33.2C72.22 34.5 70.08 35.15 67.58 35.15C65.54 35.15 63.71 34.7 62.09 33.8C60.49 32.88 59.24 31.61 58.34 29.99C57.44 28.37 56.99 26.52 56.99 24.44ZM83.2916 16.52C82.3916 16.52 81.6516 16.26 81.0716 15.74C80.5116 15.2 80.2316 14.54 80.2316 13.76C80.2316 12.96 80.5116 12.3 81.0716 11.78C81.6516 11.24 82.3916 10.97 83.2916 10.97C84.1716 10.97 84.8916 11.24 85.4516 11.78C86.0316 12.3 86.3216 12.96 86.3216 13.76C86.3216 14.54 86.0316 15.2 85.4516 15.74C84.8916 16.26 84.1716 16.52 83.2916 16.52ZM85.8416 18.26V35H80.7116V18.26H85.8416ZM94.6892 21.05C95.2892 20.13 96.0392 19.41 96.9392 18.89C97.8392 18.35 98.8392 18.08 99.9392 18.08V23.51H98.5292C97.2492 23.51 96.2892 23.79 95.6492 24.35C95.0092 24.89 94.6892 25.85 94.6892 27.23V35H89.5592V18.26H94.6892V21.05ZM101.371 26.63C101.371 24.89 101.721 23.37 102.421 22.07C103.141 20.77 104.131 19.77 105.391 19.07C106.671 18.37 108.131 18.02 109.771 18.02C111.871 18.02 113.621 18.57 115.021 19.67C116.441 20.77 117.371 22.32 117.811 24.32H112.351C111.891 23.04 111.001 22.4 109.681 22.4C108.741 22.4 107.991 22.77 107.431 23.51C106.871 24.23 106.591 25.27 106.591 26.63C106.591 27.99 106.871 29.04 107.431 29.78C107.991 30.5 108.741 30.86 109.681 30.86C111.001 30.86 111.891 30.22 112.351 28.94H117.811C117.371 30.9 116.441 32.44 115.021 33.56C113.601 34.68 111.851 35.24 109.771 35.24C108.131 35.24 106.671 34.89 105.391 34.19C104.131 33.49 103.141 32.49 102.421 31.19C101.721 29.89 101.371 28.37 101.371 26.63ZM125.685 12.8V35H120.555V12.8H125.685ZM145.183 26.36C145.183 26.84 145.153 27.34 145.093 27.86H133.483C133.563 28.9 133.893 29.7 134.473 30.26C135.073 30.8 135.803 31.07 136.663 31.07C137.943 31.07 138.833 30.53 139.333 29.45H144.793C144.513 30.55 144.003 31.54 143.263 32.42C142.543 33.3 141.633 33.99 140.533 34.49C139.433 34.99 138.203 35.24 136.843 35.24C135.203 35.24 133.743 34.89 132.463 34.19C131.183 33.49 130.183 32.49 129.463 31.19C128.743 29.89 128.383 28.37 128.383 26.63C128.383 24.89 128.733 23.37 129.433 22.07C130.153 20.77 131.153 19.77 132.433 19.07C133.713 18.37 135.183 18.02 136.843 18.02C138.463 18.02 139.903 18.36 141.163 19.04C142.423 19.72 143.403 20.69 144.103 21.95C144.823 23.21 145.183 24.68 145.183 26.36ZM139.933 25.01C139.933 24.13 139.633 23.43 139.033 22.91C138.433 22.39 137.683 22.13 136.783 22.13C135.923 22.13 135.193 22.38 134.593 22.88C134.013 23.38 133.653 24.09 133.513 25.01H139.933ZM160.699 30.35H151.579L149.899 35H147.019L154.579 14.21H157.729L165.259 35H162.379L160.699 30.35ZM159.919 28.13L156.139 17.57L152.359 28.13H159.919ZM175.334 18.29C176.754 18.29 177.994 18.6 179.054 19.22C180.134 19.84 180.934 20.62 181.454 21.56V18.56H184.214V35.36C184.214 36.86 183.894 38.19 183.254 39.35C182.614 40.53 181.694 41.45 180.494 42.11C179.314 42.77 177.934 43.1 176.354 43.1C174.194 43.1 172.394 42.59 170.954 41.57C169.514 40.55 168.664 39.16 168.404 37.4H171.104C171.404 38.4 172.024 39.2 172.964 39.8C173.904 40.42 175.034 40.73 176.354 40.73C177.854 40.73 179.074 40.26 180.014 39.32C180.974 38.38 181.454 37.06 181.454 35.36V31.91C180.914 32.87 180.114 33.67 179.054 34.31C177.994 34.95 176.754 35.27 175.334 35.27C173.874 35.27 172.544 34.91 171.344 34.19C170.164 33.47 169.234 32.46 168.554 31.16C167.874 29.86 167.534 28.38 167.534 26.72C167.534 25.04 167.874 23.57 168.554 22.31C169.234 21.03 170.164 20.04 171.344 19.34C172.544 18.64 173.874 18.29 175.334 18.29ZM181.454 26.75C181.454 25.51 181.204 24.43 180.704 23.51C180.204 22.59 179.524 21.89 178.664 21.41C177.824 20.91 176.894 20.66 175.874 20.66C174.854 20.66 173.924 20.9 173.084 21.38C172.244 21.86 171.574 22.56 171.074 23.48C170.574 24.4 170.324 25.48 170.324 26.72C170.324 27.98 170.574 29.08 171.074 30.02C171.574 30.94 172.244 31.65 173.084 32.15C173.924 32.63 174.854 32.87 175.874 32.87C176.894 32.87 177.824 32.63 178.664 32.15C179.524 31.65 180.204 30.94 180.704 30.02C181.204 29.08 181.454 27.99 181.454 26.75ZM203.828 26.15C203.828 26.67 203.798 27.22 203.738 27.8H190.598C190.698 29.42 191.248 30.69 192.248 31.61C193.268 32.51 194.498 32.96 195.938 32.96C197.118 32.96 198.098 32.69 198.878 32.15C199.678 31.59 200.238 30.85 200.558 29.93H203.498C203.058 31.51 202.178 32.8 200.858 33.8C199.538 34.78 197.898 35.27 195.938 35.27C194.378 35.27 192.978 34.92 191.738 34.22C190.518 33.52 189.558 32.53 188.858 31.25C188.158 29.95 187.808 28.45 187.808 26.75C187.808 25.05 188.148 23.56 188.828 22.28C189.508 21 190.458 20.02 191.678 19.34C192.918 18.64 194.338 18.29 195.938 18.29C197.498 18.29 198.878 18.63 200.078 19.31C201.278 19.99 202.198 20.93 202.838 22.13C203.498 23.31 203.828 24.65 203.828 26.15ZM201.008 25.58C201.008 24.54 200.778 23.65 200.318 22.91C199.858 22.15 199.228 21.58 198.428 21.2C197.648 20.8 196.778 20.6 195.818 20.6C194.438 20.6 193.258 21.04 192.278 21.92C191.318 22.8 190.768 24.02 190.628 25.58H201.008Z" fill="black"/>
<path d="M25 4.6875C20.9826 4.6875 17.0554 5.87881 13.715 8.11077C10.3746 10.3427 7.77111 13.5151 6.23371 17.2267C4.6963 20.9384 4.29405 25.0225 5.07781 28.9628C5.86157 32.903 7.79615 36.5224 10.6369 39.3631C13.4777 42.2039 17.097 44.1384 21.0372 44.9222C24.9775 45.706 29.0616 45.3037 32.7733 43.7663C36.4849 42.2289 39.6573 39.6254 41.8892 36.285C44.1212 32.9446 45.3125 29.0174 45.3125 25C45.3068 19.6145 43.1649 14.4513 39.3568 10.6432C35.5487 6.83507 30.3855 4.69319 25 4.6875ZM25 42.1875C21.6006 42.1875 18.2776 41.1795 15.4511 39.2909C12.6247 37.4023 10.4217 34.718 9.12083 31.5774C7.81995 28.4368 7.47958 24.9809 8.14276 21.6469C8.80595 18.3128 10.4429 15.2503 12.8466 12.8466C15.2503 10.4429 18.3128 8.80594 21.6469 8.14275C24.9809 7.47957 28.4368 7.81994 31.5774 9.12082C34.718 10.4217 37.4023 12.6247 39.2909 15.4511C41.1795 18.2776 42.1875 21.6006 42.1875 25C42.1823 29.5568 40.3699 33.9255 37.1477 37.1477C33.9255 40.3699 29.5568 42.1823 25 42.1875ZM21.875 15.625C21.875 15.0069 22.0583 14.4027 22.4017 13.8888C22.745 13.3749 23.2331 12.9744 23.8041 12.7379C24.3751 12.5014 25.0035 12.4395 25.6097 12.56C26.2159 12.6806 26.7727 12.9783 27.2097 13.4153C27.6468 13.8523 27.9444 14.4092 28.065 15.0153C28.1855 15.6215 28.1237 16.2499 27.8871 16.8209C27.6506 17.3919 27.2501 17.88 26.7362 18.2233C26.2223 18.5667 25.6181 18.75 25 18.75C24.1712 18.75 23.3764 18.4208 22.7903 17.8347C22.2042 17.2487 21.875 16.4538 21.875 15.625ZM35.9375 21.875C35.9375 22.2894 35.7729 22.6868 35.4799 22.9799C35.1868 23.2729 34.7894 23.4375 34.375 23.4375H26.5625V26.0898L32.5508 35.0742C32.7808 35.4192 32.8643 35.8414 32.783 36.248C32.7017 36.6546 32.4622 37.0122 32.1172 37.2422C31.7722 37.4722 31.35 37.5557 30.9434 37.4744C30.5368 37.3931 30.1792 37.1536 29.9492 36.8086L25 29.3867L20.0508 36.8086C19.9369 36.9794 19.7905 37.1261 19.6199 37.2404C19.4493 37.3546 19.2579 37.4341 19.0566 37.4744C18.65 37.5557 18.2278 37.4722 17.8828 37.2422C17.5378 37.0122 17.2983 36.6546 17.217 36.248C17.1357 35.8414 17.2192 35.4192 17.4492 35.0742L23.4375 26.0898V23.4375H15.625C15.2106 23.4375 14.8132 23.2729 14.5202 22.9799C14.2271 22.6868 14.0625 22.2894 14.0625 21.875C14.0625 21.4606 14.2271 21.0632 14.5202 20.7701C14.8132 20.4771 15.2106 20.3125 15.625 20.3125H34.375C34.7894 20.3125 35.1868 20.4771 35.4799 20.7701C35.7729 21.0632 35.9375 21.4606 35.9375 21.875Z" fill="url(#paint0_linear_304_1267)"/>
<defs>
<linearGradient id="paint0_linear_304_1267" x1="25" y1="4.6875" x2="25" y2="45.3125" gradientUnits="userSpaceOnUse">
<stop stop-color="#D7E961"/>
<stop offset="1" stop-color="#78B5D3"/>
</linearGradient>
</defs>
</svg>
