<svg width="52" height="52" viewBox="0 0 52 52" fill="none" xmlns="http://www.w3.org/2000/svg">
<path d="M49.725 30.55C49.5543 30.6781 49.36 30.7712 49.1533 30.8242C48.9466 30.8771 48.7314 30.8889 48.5202 30.8587C48.3089 30.8285 48.1057 30.757 47.9221 30.6483C47.7385 30.5396 47.578 30.3957 47.45 30.225C46.4706 28.9085 45.1957 27.8403 43.728 27.1065C42.2604 26.3726 40.6409 25.9937 39 26C38.6805 26 38.368 25.9057 38.1017 25.7291C37.8355 25.5524 37.6272 25.3011 37.503 25.0067C37.4186 24.8068 37.3752 24.592 37.3752 24.375C37.3752 24.158 37.4186 23.9432 37.503 23.7433C37.6272 23.4489 37.8355 23.1976 38.1017 23.021C38.368 22.8443 38.6805 22.75 39 22.75C39.9118 22.7499 40.8052 22.4942 41.5789 22.0117C42.3526 21.5293 42.9755 20.8396 43.3769 20.0209C43.7782 19.2022 43.9419 18.2874 43.8494 17.3803C43.7569 16.4733 43.4118 15.6103 42.8535 14.8895C42.2951 14.1687 41.5458 13.619 40.6906 13.3027C39.8355 12.9864 38.9087 12.9163 38.0157 13.1003C37.1227 13.2843 36.2992 13.7151 35.6387 14.3437C34.9783 14.9722 34.5073 15.7734 34.2794 16.6563C34.226 16.863 34.1325 17.0572 34.0041 17.2278C33.8757 17.3983 33.7149 17.542 33.531 17.6504C33.3471 17.7589 33.1437 17.83 32.9323 17.8599C32.7208 17.8897 32.5056 17.8776 32.2989 17.8242C32.0922 17.7709 31.898 17.6773 31.7274 17.5489C31.5568 17.4205 31.4132 17.2598 31.3048 17.0759C31.1963 16.892 31.1251 16.6885 31.0953 16.4771C31.0655 16.2657 31.0776 16.0505 31.1309 15.8438C31.4473 14.6196 32.0451 13.4861 32.8766 12.5335C33.7081 11.581 34.7505 10.8357 35.9207 10.3569C37.091 9.87804 38.3568 9.67897 39.6176 9.77547C40.8783 9.87197 42.0991 10.2614 43.1829 10.9127C44.2667 11.5641 45.1834 12.4594 45.8603 13.5274C46.5372 14.5954 46.9554 15.8066 47.0818 17.0647C47.2082 18.3228 47.0392 19.593 46.5883 20.7743C46.1373 21.9556 45.4169 23.0154 44.4844 23.8692C46.694 24.8259 48.6148 26.3441 50.0561 28.273C50.1841 28.4441 50.2771 28.6389 50.3298 28.846C50.3825 29.0532 50.3937 29.2687 50.363 29.4802C50.3322 29.6917 50.26 29.8951 50.1506 30.0787C50.0411 30.2622 49.8965 30.4224 49.725 30.55ZM38.7806 43.0625C38.8982 43.2475 38.9771 43.4543 39.0127 43.6705C39.0483 43.8868 39.0397 44.108 38.9876 44.3209C38.9355 44.5338 38.8408 44.7339 38.7093 44.9092C38.5778 45.0846 38.4122 45.2315 38.2225 45.3412C38.0327 45.4508 37.8228 45.521 37.6052 45.5474C37.3876 45.5739 37.167 45.556 36.9565 45.4949C36.746 45.4339 36.5501 45.3309 36.3804 45.1921C36.2108 45.0533 36.071 44.8817 35.9694 44.6875C34.9457 42.9542 33.4878 41.5177 31.7396 40.5198C29.9913 39.5219 28.013 38.997 26 38.997C23.987 38.997 22.0087 39.5219 20.2604 40.5198C18.5122 41.5177 17.0543 42.9542 16.0306 44.6875C15.929 44.8817 15.7892 45.0533 15.6196 45.1921C15.4499 45.3309 15.254 45.4339 15.0435 45.4949C14.833 45.556 14.6124 45.5739 14.3948 45.5474C14.1772 45.521 13.9673 45.4508 13.7775 45.3412C13.5878 45.2315 13.4222 45.0846 13.2907 44.9092C13.1592 44.7339 13.0645 44.5338 13.0124 44.3209C12.9603 44.108 12.9517 43.8868 12.9873 43.6705C13.0229 43.4543 13.1018 43.2475 13.2194 43.0625C14.7948 40.3556 17.197 38.2254 20.0728 36.985C18.4546 35.746 17.2653 34.0311 16.6721 32.0812C16.0789 30.1314 16.1117 28.0447 16.7658 26.1144C17.4199 24.1841 18.6624 22.5073 20.3187 21.3198C21.9751 20.1322 23.9619 19.4935 26 19.4935C28.0381 19.4935 30.0249 20.1322 31.6813 21.3198C33.3376 22.5073 34.5801 24.1841 35.2342 26.1144C35.8883 28.0447 35.9211 30.1314 35.3279 32.0812C34.7347 34.0311 33.5454 35.746 31.9272 36.985C34.803 38.2254 37.2052 40.3556 38.7806 43.0625ZM26 35.75C27.2856 35.75 28.5423 35.3688 29.6112 34.6546C30.6801 33.9403 31.5132 32.9252 32.0052 31.7375C32.4972 30.5497 32.6259 29.2428 32.3751 27.9819C32.1243 26.7211 31.5052 25.5629 30.5962 24.6538C29.6872 23.7448 28.529 23.1257 27.2681 22.8749C26.0072 22.6241 24.7003 22.7528 23.5126 23.2448C22.3248 23.7368 21.3097 24.5699 20.5954 25.6388C19.8812 26.7077 19.5 27.9644 19.5 29.25C19.5 30.9739 20.1848 32.6272 21.4038 33.8462C22.6228 35.0652 24.2761 35.75 26 35.75ZM14.625 24.375C14.625 23.944 14.4538 23.5307 14.149 23.226C13.8443 22.9212 13.431 22.75 13 22.75C12.0882 22.7499 11.1948 22.4942 10.4211 22.0117C9.64737 21.5293 9.02447 20.8396 8.62313 20.0209C8.22178 19.2022 8.05807 18.2874 8.15059 17.3803C8.24311 16.4733 8.58815 15.6103 9.14653 14.8895C9.7049 14.1687 10.4542 13.619 11.3094 13.3027C12.1645 12.9864 13.0913 12.9163 13.9843 13.1003C14.8773 13.2843 15.7008 13.7151 16.3613 14.3437C17.0217 14.9722 17.4927 15.7734 17.7206 16.6563C17.8284 17.0738 18.0976 17.4314 18.469 17.6504C18.8404 17.8695 19.2836 17.932 19.7011 17.8242C20.1186 17.7165 20.4762 17.4473 20.6952 17.0759C20.9143 16.7045 20.9768 16.2613 20.8691 15.8438C20.5527 14.6196 19.955 13.4861 19.1234 12.5335C18.2919 11.581 17.2495 10.8357 16.0793 10.3569C14.909 9.87804 13.6432 9.67897 12.3824 9.77547C11.1217 9.87197 9.90086 10.2614 8.8171 10.9127C7.73334 11.5641 6.81656 12.4594 6.1397 13.5274C5.46283 14.5954 5.04458 15.8066 4.9182 17.0647C4.79183 18.3228 4.96082 19.593 5.41174 20.7743C5.86267 21.9556 6.58307 23.0154 7.51562 23.8692C5.30823 24.8269 3.38957 26.345 1.95 28.273C1.69114 28.6178 1.57985 29.0513 1.64061 29.4781C1.70137 29.9049 1.9292 30.2901 2.27398 30.549C2.61876 30.8079 3.05225 30.9191 3.47909 30.8584C3.90593 30.7976 4.29114 30.5698 4.55 30.225C5.52944 28.9085 6.80431 27.8403 8.27198 27.1065C9.73965 26.3726 11.3591 25.9937 13 26C13.431 26 13.8443 25.8288 14.149 25.5241C14.4538 25.2193 14.625 24.806 14.625 24.375Z" fill="#FFFBFB"/>
</svg>
