<svg width="47" height="43" viewBox="0 0 47 43" fill="none" xmlns="http://www.w3.org/2000/svg">
<path d="M21.375 31.625C20.1875 30.375 19.5938 28.8438 19.5938 27.0312C19.5938 25.2188 20.2188 23.6875 21.4688 22.4375C22.7188 21.1875 24.2188 20.5625 25.9688 20.5625C27.7812 20.5625 29.3125 21.1875 30.5625 22.4375C31.8125 23.6875 32.4375 25.2188 32.4375 27.0312C32.4375 28.7812 31.8125 30.2812 30.5625 31.5312C29.3125 32.7812 27.7812 33.4062 25.9688 33.4062C24.1562 33.4062 22.625 32.8125 21.375 31.625ZM18.9375 34.0625C20.875 36 23.2188 36.9688 25.9688 36.9688C28.7188 36.9688 31.0625 36 33 34.0625C35 32.125 36 29.7812 36 27.0312C36 24.2812 35 21.9375 33 20C31.0625 18 28.7188 17 25.9688 17C23.2188 17 20.875 18 18.9375 20C17 21.9375 16.0312 24.2812 16.0312 27.0312C16.0312 29.7812 17 32.125 18.9375 34.0625ZM12 18.9688V12.9688H18V6.96875H31.9688L35.625 11H42C43.0625 11 44 11.4062 44.8125 12.2188C45.625 13.0313 46.0312 13.9688 46.0312 15.0312V39.0312C46.0312 40.0938 45.625 41.0312 44.8125 41.8438C44 42.5938 43.0625 42.9688 42 42.9688H10.0312C8.96875 42.9688 8.03125 42.5938 7.21875 41.8438C6.40625 41.0312 6 40.0938 6 39.0312V18.9688H12ZM6 6.96875V0.96875H10.0312V6.96875H16.0312V11H10.0312V17H6V11H0V6.96875H6Z" fill="#9CA3AF"/>
</svg>
