<svg width="38" height="38" viewBox="0 0 38 38" fill="none" xmlns="http://www.w3.org/2000/svg">
<path d="M18.9999 3.16675C12.6666 3.16675 6.33325 3.95841 6.33325 9.50008V24.5417C6.33325 27.5976 8.81909 30.0834 11.8749 30.0834L9.49992 32.4584V33.2501H28.4999V32.4584L26.1249 30.0834C29.1807 30.0834 31.6666 27.5976 31.6666 24.5417V9.50008C31.6666 3.95841 25.9983 3.16675 18.9999 3.16675ZM27.9616 7.91675H10.1808C11.1466 7.09341 13.4424 6.33341 18.9999 6.33341C24.8741 6.33341 27.1066 7.06175 27.9616 7.91675ZM17.4166 11.0834V15.8334H9.49992V11.0834H17.4166ZM20.5833 11.0834H28.4999V15.8334H20.5833V11.0834ZM26.1249 26.9167H11.8749C10.5608 26.9167 9.49992 25.8559 9.49992 24.5417V19.0001H28.4999V24.5417C28.4999 25.8559 27.4391 26.9167 26.1249 26.9167Z" fill="black"/>
<path d="M13.4583 25.3333C14.7699 25.3333 15.8333 24.2699 15.8333 22.9583C15.8333 21.6466 14.7699 20.5833 13.4583 20.5833C12.1466 20.5833 11.0833 21.6466 11.0833 22.9583C11.0833 24.2699 12.1466 25.3333 13.4583 25.3333Z" fill="black"/>
<path d="M24.5417 25.3333C25.8534 25.3333 26.9167 24.2699 26.9167 22.9583C26.9167 21.6466 25.8534 20.5833 24.5417 20.5833C23.2301 20.5833 22.1667 21.6466 22.1667 22.9583C22.1667 24.2699 23.2301 25.3333 24.5417 25.3333Z" fill="black"/>
</svg>
