<svg width="32" height="32" viewBox="0 0 32 32" fill="none" xmlns="http://www.w3.org/2000/svg">
<path d="M13.3336 5.33329H9.6003C8.10683 5.33329 7.35953 5.33329 6.7891 5.62394C6.28734 5.8796 5.87969 6.28726 5.62402 6.78902C5.33337 7.35945 5.33337 8.10675 5.33337 9.60022V22.4002C5.33337 23.8937 5.33337 24.64 5.62402 25.2105C5.87969 25.7122 6.28734 26.1206 6.7891 26.3763C7.35898 26.6666 8.10537 26.6666 9.59592 26.6666H22.4042C23.8947 26.6666 24.64 26.6666 25.2099 26.3763C25.7117 26.1206 26.1207 25.7118 26.3763 25.2101C26.6667 24.6402 26.6667 23.8946 26.6667 22.4041V18.6666M21.3334 6.66663L13.3334 14.6666V18.6666H17.3334L25.3334 10.6666M21.3334 6.66663L25.3334 2.66663L29.3334 6.66663L25.3334 10.6666M21.3334 6.66663L25.3334 10.6666" stroke="#575DDF" stroke-width="2" stroke-linecap="round" stroke-linejoin="round"/>
</svg>
