<svg width="32" height="32" viewBox="0 0 32 32" fill="none" xmlns="http://www.w3.org/2000/svg">
<circle cx="16" cy="16" r="16" fill="#D7E961"/>
<path fill-rule="evenodd" clip-rule="evenodd" d="M16 26C16 26 23.5 18.8925 23.5 13.5C23.5 11.5109 22.7098 9.60322 21.3033 8.1967C19.8968 6.79018 17.9891 6 16 6C14.0109 6 12.1032 6.79018 10.6967 8.1967C9.29018 9.60322 8.5 11.5109 8.5 13.5C8.5 18.8925 16 26 16 26ZM16 17.25C16.9946 17.25 17.9484 16.8549 18.6517 16.1517C19.3549 15.4484 19.75 14.4946 19.75 13.5C19.75 12.5054 19.3549 11.5516 18.6517 10.8483C17.9484 10.1451 16.9946 9.75 16 9.75C15.0054 9.75 14.0516 10.1451 13.3483 10.8483C12.6451 11.5516 12.25 12.5054 12.25 13.5C12.25 14.4946 12.6451 15.4484 13.3483 16.1517C14.0516 16.8549 15.0054 17.25 16 17.25V17.25Z" fill="black"/>
</svg>
