<svg width="36" height="36" viewBox="0 0 36 36" fill="none" xmlns="http://www.w3.org/2000/svg">
<path d="M25.875 6.75H19.125V3.375H23.625C23.9234 3.375 24.2095 3.25647 24.4205 3.0455C24.6315 2.83452 24.75 2.54837 24.75 2.25C24.75 1.95163 24.6315 1.66548 24.4205 1.4545C24.2095 1.24353 23.9234 1.125 23.625 1.125H12.375C12.0766 1.125 11.7905 1.24353 11.5795 1.4545C11.3685 1.66548 11.25 1.95163 11.25 2.25C11.25 2.54837 11.3685 2.83452 11.5795 3.0455C11.7905 3.25647 12.0766 3.375 12.375 3.375H16.875V6.75H10.125C8.93153 6.75 7.78693 7.22411 6.94302 8.06802C6.09911 8.91193 5.625 10.0565 5.625 11.25V25.875C5.625 27.0685 6.09911 28.2131 6.94302 29.057C7.78693 29.9009 8.93153 30.375 10.125 30.375H11.25L9.225 33.075C9.13636 33.1932 9.07186 33.3277 9.0352 33.4708C8.99853 33.6139 8.99041 33.7628 9.01131 33.9091C9.0322 34.0554 9.08169 34.1961 9.15697 34.3232C9.23224 34.4503 9.33181 34.5614 9.45 34.65C9.56819 34.7386 9.70268 34.8031 9.8458 34.8398C9.98891 34.8765 10.1378 34.8846 10.2841 34.8637C10.4304 34.8428 10.5711 34.7933 10.6982 34.718C10.8253 34.6428 10.9364 34.5432 11.025 34.425L14.0625 30.375H21.9375L24.975 34.425C25.154 34.6637 25.4205 34.8215 25.7159 34.8637C26.0113 34.9059 26.3113 34.829 26.55 34.65C26.7887 34.471 26.9465 34.2045 26.9887 33.9091C27.0309 33.6137 26.954 33.3137 26.775 33.075L24.75 30.375H25.875C27.0685 30.375 28.2131 29.9009 29.057 29.057C29.9009 28.2131 30.375 27.0685 30.375 25.875V11.25C30.375 10.0565 29.9009 8.91193 29.057 8.06802C28.2131 7.22411 27.0685 6.75 25.875 6.75ZM10.125 9H25.875C26.4717 9 27.044 9.23705 27.466 9.65901C27.8879 10.081 28.125 10.6533 28.125 11.25V16.875H7.875V11.25C7.875 10.6533 8.11205 10.081 8.53401 9.65901C8.95597 9.23705 9.52826 9 10.125 9ZM25.875 28.125H10.125C9.52826 28.125 8.95597 27.8879 8.53401 27.466C8.11205 27.044 7.875 26.4717 7.875 25.875V19.125H28.125V25.875C28.125 26.4717 27.8879 27.044 27.466 27.466C27.044 27.8879 26.4717 28.125 25.875 28.125ZM13.5 24.1875C13.5 24.5213 13.401 24.8475 13.2156 25.125C13.0302 25.4025 12.7666 25.6188 12.4583 25.7465C12.1499 25.8743 11.8106 25.9077 11.4833 25.8426C11.1559 25.7775 10.8553 25.6167 10.6193 25.3807C10.3833 25.1447 10.2225 24.8441 10.1574 24.5167C10.0923 24.1894 10.1257 23.8501 10.2535 23.5417C10.3812 23.2334 10.5975 22.9698 10.875 22.7844C11.1525 22.599 11.4787 22.5 11.8125 22.5C12.2601 22.5 12.6893 22.6778 13.0057 22.9943C13.3222 23.3107 13.5 23.7399 13.5 24.1875ZM25.875 24.1875C25.875 24.5213 25.776 24.8475 25.5906 25.125C25.4052 25.4025 25.1416 25.6188 24.8333 25.7465C24.5249 25.8743 24.1856 25.9077 23.8583 25.8426C23.5309 25.7775 23.2303 25.6167 22.9943 25.3807C22.7583 25.1447 22.5975 24.8441 22.5324 24.5167C22.4673 24.1894 22.5007 23.8501 22.6285 23.5417C22.7562 23.2334 22.9725 22.9698 23.25 22.7844C23.5275 22.599 23.8537 22.5 24.1875 22.5C24.6351 22.5 25.0643 22.6778 25.3807 22.9943C25.6972 23.3107 25.875 23.7399 25.875 24.1875Z" fill="#343330"/>
</svg>
