<svg width="38" height="38" viewBox="0 0 38 38" fill="none" xmlns="http://www.w3.org/2000/svg">
<path d="M32.5538 16.1322L20.6788 4.25719C20.2335 3.81212 19.6296 3.56211 19 3.56211C18.3704 3.56211 17.7665 3.81212 17.3212 4.25719L5.44619 16.1322C5.22458 16.3522 5.04891 16.614 4.92939 16.9024C4.80988 17.1909 4.7489 17.5003 4.75001 17.8125V32.0625C4.75001 32.3774 4.87513 32.6795 5.09783 32.9022C5.32053 33.1249 5.62257 33.25 5.93751 33.25H15.4375C15.7525 33.25 16.0545 33.1249 16.2772 32.9022C16.4999 32.6795 16.625 32.3774 16.625 32.0625V23.75H21.375V32.0625C21.375 32.3774 21.5001 32.6795 21.7228 32.9022C21.9455 33.1249 22.2476 33.25 22.5625 33.25H32.0625C32.3775 33.25 32.6795 33.1249 32.9022 32.9022C33.1249 32.6795 33.25 32.3774 33.25 32.0625V17.8125C33.2511 17.5003 33.1902 17.1909 33.0706 16.9024C32.9511 16.614 32.7755 16.3522 32.5538 16.1322ZM30.875 30.875H23.75V22.5625C23.75 22.2476 23.6249 21.9455 23.4022 21.7228C23.1795 21.5001 22.8775 21.375 22.5625 21.375H15.4375C15.1226 21.375 14.8205 21.5001 14.5978 21.7228C14.3751 21.9455 14.25 22.2476 14.25 22.5625V30.875H7.12502V17.8125L19 5.9375L30.875 17.8125V30.875Z" fill="#343330"/>
</svg>
