<svg width="35" height="36" viewBox="0 0 35 36" fill="none" xmlns="http://www.w3.org/2000/svg">
<path d="M33.9062 29.25H32.8125V18C32.8125 17.4033 32.582 16.831 32.1718 16.409C31.7616 15.9871 31.2052 15.75 30.625 15.75H22.9688V6.75C22.9688 6.15326 22.7383 5.58097 22.328 5.15901C21.9178 4.73705 21.3614 4.5 20.7812 4.5H7.65625C7.07609 4.5 6.51969 4.73705 6.10945 5.15901C5.69922 5.58097 5.46875 6.15326 5.46875 6.75V29.25H4.375C4.08492 29.25 3.80672 29.3685 3.6016 29.5795C3.39648 29.7905 3.28125 30.0766 3.28125 30.375C3.28125 30.6734 3.39648 30.9595 3.6016 31.1705C3.80672 31.3815 4.08492 31.5 4.375 31.5H33.9062C34.1963 31.5 34.4745 31.3815 34.6796 31.1705C34.8848 30.9595 35 30.6734 35 30.375C35 30.0766 34.8848 29.7905 34.6796 29.5795C34.4745 29.3685 34.1963 29.25 33.9062 29.25ZM30.625 18V29.25H22.9688V18H30.625ZM7.65625 6.75H20.7812V29.25H18.5938V22.5C18.5938 22.2016 18.4785 21.9155 18.2734 21.7045C18.0683 21.4935 17.7901 21.375 17.5 21.375H10.9375C10.6474 21.375 10.3692 21.4935 10.1641 21.7045C9.95898 21.9155 9.84375 22.2016 9.84375 22.5V29.25H7.65625V6.75ZM16.4062 29.25H12.0312V23.625H16.4062V29.25ZM9.84375 13.5C9.84375 13.2016 9.95898 12.9155 10.1641 12.7045C10.3692 12.4935 10.6474 12.375 10.9375 12.375H13.125V10.125C13.125 9.82663 13.2402 9.54048 13.4454 9.32951C13.6505 9.11853 13.9287 9 14.2188 9C14.5088 9 14.787 9.11853 14.9921 9.32951C15.1973 9.54048 15.3125 9.82663 15.3125 10.125V12.375H17.5C17.7901 12.375 18.0683 12.4935 18.2734 12.7045C18.4785 12.9155 18.5938 13.2016 18.5938 13.5C18.5938 13.7984 18.4785 14.0845 18.2734 14.2955C18.0683 14.5065 17.7901 14.625 17.5 14.625H15.3125V16.875C15.3125 17.1734 15.1973 17.4595 14.9921 17.6705C14.787 17.8815 14.5088 18 14.2188 18C13.9287 18 13.6505 17.8815 13.4454 17.6705C13.2402 17.4595 13.125 17.1734 13.125 16.875V14.625H10.9375C10.6474 14.625 10.3692 14.5065 10.1641 14.2955C9.95898 14.0845 9.84375 13.7984 9.84375 13.5Z" fill="#343330"/>
</svg>
