<svg width="36" height="36" viewBox="0 0 36 36" fill="none" xmlns="http://www.w3.org/2000/svg">
<path d="M29.25 4.5H25.875V3.375C25.875 3.07663 25.7565 2.79048 25.5455 2.5795C25.3345 2.36853 25.0484 2.25 24.75 2.25C24.4516 2.25 24.1655 2.36853 23.9545 2.5795C23.7435 2.79048 23.625 3.07663 23.625 3.375V4.5H12.375V3.375C12.375 3.07663 12.2565 2.79048 12.0455 2.5795C11.8345 2.36853 11.5484 2.25 11.25 2.25C10.9516 2.25 10.6655 2.36853 10.4545 2.5795C10.2435 2.79048 10.125 3.07663 10.125 3.375V4.5H6.75C6.15326 4.5 5.58097 4.73705 5.15901 5.15901C4.73705 5.58097 4.5 6.15326 4.5 6.75V29.25C4.5 29.8467 4.73705 30.419 5.15901 30.841C5.58097 31.2629 6.15326 31.5 6.75 31.5H29.25C29.8467 31.5 30.419 31.2629 30.841 30.841C31.2629 30.419 31.5 29.8467 31.5 29.25V6.75C31.5 6.15326 31.2629 5.58097 30.841 5.15901C30.419 4.73705 29.8467 4.5 29.25 4.5ZM10.125 6.75V7.875C10.125 8.17337 10.2435 8.45952 10.4545 8.67049C10.6655 8.88147 10.9516 9 11.25 9C11.5484 9 11.8345 8.88147 12.0455 8.67049C12.2565 8.45952 12.375 8.17337 12.375 7.875V6.75H23.625V7.875C23.625 8.17337 23.7435 8.45952 23.9545 8.67049C24.1655 8.88147 24.4516 9 24.75 9C25.0484 9 25.3345 8.88147 25.5455 8.67049C25.7565 8.45952 25.875 8.17337 25.875 7.875V6.75H29.25V11.25H6.75V6.75H10.125ZM29.25 29.25H6.75V13.5H29.25V29.25ZM19.6875 18.5625C19.6875 18.8963 19.5885 19.2225 19.4031 19.5C19.2177 19.7775 18.9541 19.9938 18.6458 20.1215C18.3374 20.2493 17.9981 20.2827 17.6708 20.2176C17.3434 20.1525 17.0428 19.9917 16.8068 19.7557C16.5708 19.5197 16.41 19.2191 16.3449 18.8917C16.2798 18.5644 16.3132 18.2251 16.441 17.9167C16.5687 17.6084 16.785 17.3448 17.0625 17.1594C17.34 16.974 17.6662 16.875 18 16.875C18.4476 16.875 18.8768 17.0528 19.1932 17.3693C19.5097 17.6857 19.6875 18.1149 19.6875 18.5625ZM25.875 18.5625C25.875 18.8963 25.776 19.2225 25.5906 19.5C25.4052 19.7775 25.1416 19.9938 24.8333 20.1215C24.5249 20.2493 24.1856 20.2827 23.8583 20.2176C23.5309 20.1525 23.2303 19.9917 22.9943 19.7557C22.7583 19.5197 22.5975 19.2191 22.5324 18.8917C22.4673 18.5644 22.5007 18.2251 22.6285 17.9167C22.7562 17.6084 22.9725 17.3448 23.25 17.1594C23.5275 16.974 23.8537 16.875 24.1875 16.875C24.6351 16.875 25.0643 17.0528 25.3807 17.3693C25.6972 17.6857 25.875 18.1149 25.875 18.5625ZM13.5 24.1875C13.5 24.5213 13.401 24.8475 13.2156 25.125C13.0302 25.4025 12.7666 25.6188 12.4583 25.7465C12.1499 25.8743 11.8106 25.9077 11.4833 25.8426C11.1559 25.7775 10.8553 25.6167 10.6193 25.3807C10.3833 25.1447 10.2225 24.8441 10.1574 24.5167C10.0923 24.1894 10.1257 23.8501 10.2535 23.5417C10.3812 23.2334 10.5975 22.9698 10.875 22.7844C11.1525 22.599 11.4787 22.5 11.8125 22.5C12.2601 22.5 12.6893 22.6778 13.0057 22.9943C13.3222 23.3107 13.5 23.7399 13.5 24.1875ZM19.6875 24.1875C19.6875 24.5213 19.5885 24.8475 19.4031 25.125C19.2177 25.4025 18.9541 25.6188 18.6458 25.7465C18.3374 25.8743 17.9981 25.9077 17.6708 25.8426C17.3434 25.7775 17.0428 25.6167 16.8068 25.3807C16.5708 25.1447 16.41 24.8441 16.3449 24.5167C16.2798 24.1894 16.3132 23.8501 16.441 23.5417C16.5687 23.2334 16.785 22.9698 17.0625 22.7844C17.34 22.599 17.6662 22.5 18 22.5C18.4476 22.5 18.8768 22.6778 19.1932 22.9943C19.5097 23.3107 19.6875 23.7399 19.6875 24.1875ZM25.875 24.1875C25.875 24.5213 25.776 24.8475 25.5906 25.125C25.4052 25.4025 25.1416 25.6188 24.8333 25.7465C24.5249 25.8743 24.1856 25.9077 23.8583 25.8426C23.5309 25.7775 23.2303 25.6167 22.9943 25.3807C22.7583 25.1447 22.5975 24.8441 22.5324 24.5167C22.4673 24.1894 22.5007 23.8501 22.6285 23.5417C22.7562 23.2334 22.9725 22.9698 23.25 22.7844C23.5275 22.599 23.8537 22.5 24.1875 22.5C24.6351 22.5 25.0643 22.6778 25.3807 22.9943C25.6972 23.3107 25.875 23.7399 25.875 24.1875Z" fill="#343330"/>
</svg>
