<svg width="35" height="35" viewBox="0 0 35 35" fill="none" xmlns="http://www.w3.org/2000/svg">
<path d="M32.8126 26.7969C32.7863 26.4802 32.6914 26.1731 32.5344 25.8968C32.3773 25.6206 32.162 25.3819 31.9034 25.1973L26.7081 21.4854L29.0323 19.168C29.6665 18.5392 30.1355 17.7636 30.3979 16.91C30.6602 16.0564 30.7078 15.1512 30.5362 14.2748C29.8999 11.1511 28.187 8.34994 25.6964 6.36016C23.167 4.32396 20.0059 3.23497 16.7591 3.28125C13.2033 3.34138 9.81004 4.78065 7.29539 7.2953C4.78074 9.80995 3.34147 13.2032 3.28134 16.759C3.24127 20.0018 4.33132 23.1573 6.36435 25.684C8.35413 28.1746 11.1553 29.8875 14.279 30.5238C15.1554 30.6952 16.0605 30.6477 16.9141 30.3853C17.7677 30.123 18.5433 29.654 19.1722 29.0199L21.4895 26.6957L25.2015 31.891C25.3844 32.1514 25.6219 32.3688 25.8975 32.5279C26.173 32.6871 26.48 32.7842 26.797 32.8125C26.8571 32.8125 26.9173 32.8193 26.9774 32.8193C27.5575 32.8191 28.1137 32.5884 28.5237 32.1781L32.1659 28.5359C32.3946 28.3112 32.571 28.0389 32.6828 27.7384C32.7945 27.4378 32.8388 27.1164 32.8126 26.7969ZM8.0665 24.3127C6.35409 22.1837 5.43571 19.5252 5.46884 16.7932C5.51944 13.8063 6.72823 10.9558 8.84022 8.84301C10.9522 6.73026 13.8023 5.52043 16.7892 5.46875C19.5208 5.43779 22.1786 6.35592 24.3087 8.06641C25.3193 8.87821 26.1871 9.85323 26.8763 10.9512L10.9513 26.8762C9.85364 26.1883 8.87864 25.3219 8.0665 24.3127ZM26.9815 30.625L22.5204 24.3783C22.428 24.2491 22.3086 24.1416 22.1705 24.0632C22.0324 23.9848 21.8789 23.9375 21.7206 23.9244C21.6905 23.9244 21.6604 23.9244 21.6304 23.9244C21.4867 23.9243 21.3444 23.9525 21.2116 24.0074C21.0788 24.0623 20.9582 24.1428 20.8565 24.2443L17.6259 27.475C17.2515 27.855 16.789 28.1366 16.2795 28.2947C15.77 28.4529 15.2293 28.4826 14.7056 28.3814C14.1332 28.2669 13.5709 28.1069 13.0239 27.9029L27.8989 13.0279C28.1027 13.5749 28.2627 14.1372 28.3774 14.7096C28.4788 15.2333 28.449 15.774 28.2909 16.2835C28.1327 16.793 27.8511 17.2555 27.471 17.6299L24.2403 20.8564C24.1279 20.9687 24.0412 21.1041 23.9864 21.2533C23.9316 21.4024 23.91 21.5617 23.923 21.7201C23.936 21.8784 23.9834 22.0321 24.0618 22.1703C24.1402 22.3085 24.2478 22.4279 24.377 22.5203L30.6251 26.9814L26.9815 30.625Z" fill="#343330"/>
</svg>
