<svg width="17" height="17" viewBox="0 0 17 17" fill="none" xmlns="http://www.w3.org/2000/svg">
<g clip-path="url(#clip0_37_472)">
<path fill-rule="evenodd" clip-rule="evenodd" d="M11.0933 11.0949C11.1919 10.9961 11.3091 10.9177 11.4381 10.8642C11.5671 10.8108 11.7054 10.7832 11.845 10.7832C11.9846 10.7832 12.1229 10.8108 12.2519 10.8642C12.3808 10.9177 12.498 10.9961 12.5967 11.0949L16.6873 15.1855C16.8867 15.3847 16.9988 15.655 16.9989 15.9368C16.999 16.2187 16.8871 16.489 16.6879 16.6884C16.4886 16.8877 16.2184 16.9998 15.9365 16.9999C15.6547 17 15.3843 16.8881 15.185 16.6889L11.0943 12.5983C10.9955 12.4996 10.9172 12.3824 10.8637 12.2534C10.8102 12.1245 10.7827 11.9862 10.7827 11.8466C10.7827 11.7069 10.8102 11.5687 10.8637 11.4397C10.9172 11.3107 10.9955 11.1935 11.0943 11.0949H11.0933Z" fill="black" fill-opacity="0.25"/>
<path fill-rule="evenodd" clip-rule="evenodd" d="M6.90625 12.75C7.67366 12.75 8.43356 12.5988 9.14256 12.3052C9.85155 12.0115 10.4958 11.581 11.0384 11.0384C11.581 10.4958 12.0115 9.85155 12.3052 9.14256C12.5988 8.43356 12.75 7.67366 12.75 6.90625C12.75 6.13884 12.5988 5.37894 12.3052 4.66994C12.0115 3.96095 11.581 3.31674 11.0384 2.77409C10.4958 2.23145 9.85155 1.801 9.14256 1.50733C8.43356 1.21365 7.67366 1.0625 6.90625 1.0625C5.35639 1.0625 3.87001 1.67818 2.77409 2.77409C1.67818 3.87001 1.0625 5.35639 1.0625 6.90625C1.0625 8.45611 1.67818 9.94249 2.77409 11.0384C3.87001 12.1343 5.35639 12.75 6.90625 12.75ZM13.8125 6.90625C13.8125 8.7379 13.0849 10.4945 11.7897 11.7897C10.4945 13.0849 8.7379 13.8125 6.90625 13.8125C5.0746 13.8125 3.31797 13.0849 2.02279 11.7897C0.727621 10.4945 0 8.7379 0 6.90625C0 5.0746 0.727621 3.31797 2.02279 2.02279C3.31797 0.727621 5.0746 0 6.90625 0C8.7379 0 10.4945 0.727621 11.7897 2.02279C13.0849 3.31797 13.8125 5.0746 13.8125 6.90625Z" fill="black" fill-opacity="0.25"/>
</g>
<defs>
<clipPath id="clip0_37_472">
<rect width="17" height="17" fill="white"/>
</clipPath>
</defs>
</svg>
