<svg width="30" height="30" viewBox="0 0 30 30" fill="none" xmlns="http://www.w3.org/2000/svg">
<path d="M11.25 16.875L18.75 20.625M18.75 9.375L11.25 13.125M22.5 26.25C20.4289 26.25 18.75 24.5711 18.75 22.5C18.75 20.4289 20.4289 18.75 22.5 18.75C24.5711 18.75 26.25 20.4289 26.25 22.5C26.25 24.5711 24.5711 26.25 22.5 26.25ZM7.5 18.75C5.42893 18.75 3.75 17.0711 3.75 15C3.75 12.9289 5.42893 11.25 7.5 11.25C9.57107 11.25 11.25 12.9289 11.25 15C11.25 17.0711 9.57107 18.75 7.5 18.75ZM22.5 11.25C20.4289 11.25 18.75 9.57107 18.75 7.5C18.75 5.42893 20.4289 3.75 22.5 3.75C24.5711 3.75 26.25 5.42893 26.25 7.5C26.25 9.57107 24.5711 11.25 22.5 11.25Z" stroke="black" stroke-width="2" stroke-linecap="round" stroke-linejoin="round"/>
</svg>
