<svg width="35" height="35" viewBox="0 0 35 35" fill="none" xmlns="http://www.w3.org/2000/svg">
<path d="M5.83366 5.83329H10.2087L13.1253 2.91663H21.8753L24.792 5.83329H29.167C29.9405 5.83329 30.6824 6.14058 31.2294 6.68756C31.7764 7.23455 32.0837 7.97641 32.0837 8.74996V26.25C32.0837 27.0235 31.7764 27.7654 31.2294 28.3124C30.6824 28.8593 29.9405 29.1666 29.167 29.1666H5.83366C5.06011 29.1666 4.31824 28.8593 3.77126 28.3124C3.22428 27.7654 2.91699 27.0235 2.91699 26.25V8.74996C2.91699 7.97641 3.22428 7.23455 3.77126 6.68756C4.31824 6.14058 5.06011 5.83329 5.83366 5.83329ZM17.5003 10.2083C15.5665 10.2083 13.7118 10.9765 12.3443 12.344C10.9769 13.7114 10.2087 15.5661 10.2087 17.5C10.2087 19.4338 10.9769 21.2885 12.3443 22.6559C13.7118 24.0234 15.5665 24.7916 17.5003 24.7916C19.4342 24.7916 21.2889 24.0234 22.6563 22.6559C24.0238 21.2885 24.792 19.4338 24.792 17.5C24.792 15.5661 24.0238 13.7114 22.6563 12.344C21.2889 10.9765 19.4342 10.2083 17.5003 10.2083ZM17.5003 13.125C18.6606 13.125 19.7734 13.5859 20.5939 14.4064C21.4144 15.2268 21.8753 16.3396 21.8753 17.5C21.8753 18.6603 21.4144 19.7731 20.5939 20.5936C19.7734 21.414 18.6606 21.875 17.5003 21.875C16.34 21.875 15.2272 21.414 14.4067 20.5936C13.5863 19.7731 13.1253 18.6603 13.1253 17.5C13.1253 16.3396 13.5863 15.2268 14.4067 14.4064C15.2272 13.5859 16.34 13.125 17.5003 13.125Z" fill="white"/>
</svg>
