<svg width="28" height="32" viewBox="0 0 28 32" fill="none" xmlns="http://www.w3.org/2000/svg">
<g clip-path="url(#clip0_178_1750)">
<path fill-rule="evenodd" clip-rule="evenodd" d="M21.2806 22.2194C21.5737 22.5124 21.5737 22.9876 21.2806 23.2806C20.9876 23.5737 20.5124 23.5737 20.2194 23.2806L14 17.0603L7.78062 23.2806C7.48757 23.5737 7.01243 23.5737 6.71938 23.2806C6.42632 22.9876 6.42632 22.5124 6.71938 22.2194L12.9397 16L6.71938 9.78062C6.42632 9.48757 6.42632 9.01243 6.71938 8.71938C7.01243 8.42632 7.48757 8.42632 7.78062 8.71938L14 14.9397L20.2194 8.71938C20.5124 8.42632 20.9876 8.42632 21.2806 8.71938C21.5737 9.01243 21.5737 9.48757 21.2806 9.78062L15.0603 16L21.2806 22.2194Z" fill="#121417"/>
</g>
<defs>
<clipPath id="clip0_178_1750">
<rect width="24" height="24" fill="white" transform="translate(2 4)"/>
</clipPath>
</defs>
</svg>
