<svg width="35" height="35" viewBox="0 0 35 35" fill="none" xmlns="http://www.w3.org/2000/svg">
<path d="M23.333 16.0416C25.7538 16.0416 27.6934 14.0875 27.6934 11.6666C27.6934 9.24579 25.7538 7.29163 23.333 7.29163C20.9122 7.29163 18.958 9.24579 18.958 11.6666C18.958 14.0875 20.9122 16.0416 23.333 16.0416ZM11.6663 16.0416C14.0872 16.0416 16.0268 14.0875 16.0268 11.6666C16.0268 9.24579 14.0872 7.29163 11.6663 7.29163C9.24551 7.29163 7.29134 9.24579 7.29134 11.6666C7.29134 14.0875 9.24551 16.0416 11.6663 16.0416ZM11.6663 18.9583C8.26842 18.9583 1.45801 20.6645 1.45801 24.0625V27.7083H21.8747V24.0625C21.8747 20.6645 15.0643 18.9583 11.6663 18.9583ZM23.333 18.9583C22.9101 18.9583 22.4288 18.9875 21.9184 19.0312C23.6101 20.2562 24.7913 21.9041 24.7913 24.0625V27.7083H33.5413V24.0625C33.5413 20.6645 26.7309 18.9583 23.333 18.9583Z" fill="white"/>
</svg>
